<svg width="21" height="24" viewBox="0 0 21 24" fill="none" xmlns="http://www.w3.org/2000/svg">
<ellipse cx="16.4571" cy="4.11429" rx="4.11428" ry="4.11429" fill="#FFB179"/>
<path fill-rule="evenodd" clip-rule="evenodd" d="M17.6479 8.76544C18.0657 8.65879 18.5143 8.9499 18.5143 9.38113V10.4756C19.7576 11.3409 20.5714 12.7804 20.5714 14.41C20.5714 17.0555 18.4269 19.2 15.7815 19.2H4.78996C2.14454 19.2 0 17.0555 0 14.41C0 12.7804 0.813786 11.3409 2.05714 10.4756V8.22857C2.05714 7.75297 2.09749 7.2868 2.17495 6.83328C2.25631 6.35696 2.80577 6.16224 3.20307 6.43729C3.44127 6.60219 3.55195 6.89479 3.50806 7.18116C3.45572 7.52265 3.42857 7.87244 3.42857 8.22857L3.42857 10.9714L3.42857 11.2733C2.21799 11.7995 1.37143 13.0059 1.37143 14.41C1.37143 16.298 2.90196 17.8286 4.78996 17.8286H15.7815C17.6695 17.8286 19.2 16.298 19.2 14.41C19.2 13.0059 18.3534 11.7995 17.1429 11.2733V10.9714V9.81631V9.37471C17.1429 9.08262 17.3649 8.83768 17.6479 8.76544ZM12.5847 1.27752C12.852 0.913228 12.743 0.360072 12.3048 0.249549C11.6588 0.0865736 10.9824 0 10.2857 0C8.64293 0 7.11258 0.48141 5.82804 1.31085C5.47901 1.53623 5.45145 2.02288 5.74524 2.31667C5.98957 2.561 6.37455 2.58491 6.66793 2.40235C7.71807 1.74888 8.95781 1.37143 10.2857 1.37143C10.8267 1.37143 11.3531 1.43408 11.858 1.55253C12.1314 1.61668 12.4185 1.50396 12.5847 1.27752ZM7.54286 20.5714C7.16415 20.5714 6.84999 20.8815 6.92484 21.2528C7.24082 22.8199 8.62545 24 10.2857 24C11.946 24 13.3306 22.8199 13.6466 21.2528C13.7214 20.8815 13.4073 20.5714 13.0286 20.5714C12.6499 20.5714 12.354 20.8869 12.2301 21.2447C11.9513 22.0502 11.186 22.6286 10.2857 22.6286C9.38539 22.6286 8.62015 22.0502 8.34128 21.2447C8.21738 20.8869 7.92157 20.5714 7.54286 20.5714Z" fill="#7877EE"/>
</svg>
